<svg id="OBJECTS" xmlns="http://www.w3.org/2000/svg" xmlns:xlink="http://www.w3.org/1999/xlink" viewBox="0 0 376.51 228.66"><defs><style>.cls-1{fill:url(#linear-gradient);}.cls-2{fill:url(#linear-gradient-2);}.cls-3{fill:url(#linear-gradient-3);}</style><linearGradient id="linear-gradient" x1="251.53" y1="270.19" x2="402.12" y2="270.19" gradientUnits="userSpaceOnUse"><stop offset="0" stop-color="#df697b"/><stop offset="0.48" stop-color="#ff006c"/><stop offset="1" stop-color="#be2773"/></linearGradient><linearGradient id="linear-gradient-2" x1="364.23" y1="269.58" x2="514.83" y2="269.58" xlink:href="#linear-gradient"/><linearGradient id="linear-gradient-3" x1="-47.83" y1="99.86" x2="115.86" y2="383.38" gradientTransform="matrix(-1, 0, 0, 1, 407.45, 0)" xlink:href="#linear-gradient"/></defs><path class="cls-1" d="M396.21,222.07A75.59,75.59,0,0,0,356.1,182a75.95,75.95,0,0,0-54.82-1.52h6.28v20.14H293.47v14.79H273.33v-6.15h-8.92a79.72,79.72,0,0,0-7,12.85c-.95,2.22-1.78,4.47-2.51,6.76h6.68V249h-10c0,.82-.05,1.63-.05,2.45v75.91h6.16v20.14h-6.16v16.86h37.54V326.65h75.37v37.68h37.68V251.42A73.4,73.4,0,0,0,396.21,222.07Zm-31.77,67H289.07V274.89h-18.9V254.74h18.9v-3.32a36.73,36.73,0,0,1,3-14.64,37.52,37.52,0,0,1,20.09-20.09,37.78,37.78,0,0,1,29.27,0,37.52,37.52,0,0,1,20.09,20.09,36.73,36.73,0,0,1,3,14.64Z" transform="translate(-186.74 -135.67)"/><path class="cls-2" d="M501.7,357.48V337.33h13.13V250.8a73.39,73.39,0,0,0-5.91-29.34,78.32,78.32,0,0,0-5-9.54h-16v-5H472.11V196.1h-8.93V179.23a74.23,74.23,0,0,0-23.72-3.79,73.39,73.39,0,0,0-29.34,5.91,75.17,75.17,0,0,0-23.89,16.15,76.44,76.44,0,0,0-16.09,24,73.39,73.39,0,0,0-5.91,29.34V363.72h37.55V250.8a36.8,36.8,0,0,1,3-14.64,37.61,37.61,0,0,1,20.09-20.09,37.78,37.78,0,0,1,29.27,0,37.61,37.61,0,0,1,20.09,20.09,36.8,36.8,0,0,1,3,14.64V363.72h37.68v-6.24Z" transform="translate(-186.74 -135.67)"/><path class="cls-3" d="M285.75,152.33H265.61v20.14h20.14Zm-78.86,66.43H186.74V238.9h20.15Zm0-40.29v20.15H227V178.47Zm0-40.28v20.14H227V138.19Zm40.28,20.14H227v20.14h20.14ZM543.11,319.47v20.14H523V319.47Zm-60.43-183.8h20.15v20.14H482.68Zm60.43,83.09h20.15V238.9H543.11Zm0-40.29v20.15H523V178.47Zm-3.43-29.88v20.14H519.54V148.59Zm-36.85,9.74H523v20.14H502.83ZM224.51,324.51v20.14h20.15V324.51Z" transform="translate(-186.74 -135.67)"/></svg>